<svg xmlns="http://www.w3.org/2000/svg" xmlns:xlink="http://www.w3.org/1999/xlink" width="500" zoomAndPan="magnify" viewBox="0 0 375 374.999991" height="500" preserveAspectRatio="xMidYMid meet" version="1.0"><defs><clipPath id="a441ba4775"><path d="M 80.625 0 L 294.375 0 L 294.375 375 L 80.625 375 Z M 80.625 0 " clip-rule="nonzero"/></clipPath></defs><g clip-path="url(#a441ba4775)"><path fill="#e60965" d="M 129.886719 226.878906 C 152.433594 196.292969 177.921875 159.472656 187.375 144.617188 C 205.386719 116.324219 222.414062 85.878906 235.441406 54.230469 C 223.546875 48.351562 208.398438 44.648438 190.535156 44.648438 C 169.71875 44.648438 153.398438 48.402344 141.074219 55.320312 C 153.3125 84.433594 169.144531 114.089844 185.972656 142.292969 L 155.140625 187.515625 C 134.921875 149.097656 118.175781 113.042969 110.910156 88.613281 C 108.109375 79.195312 110.316406 67.933594 114.523438 57.324219 C 125.117188 30.597656 141.40625 16.359375 143.03125 14.734375 C 152.691406 5.070312 171.628906 0 190.121094 0.429688 C 208.5625 0.855469 226.960938 6.242188 236.601562 15.878906 C 255.5625 34.839844 263.867188 56.121094 267.414062 71.175781 C 269.179688 78.675781 269.785156 82.878906 268.417969 88.621094 C 253.191406 152.644531 177.007812 265.664062 159.574219 290.90625 C 134.820312 326.742188 114.632812 355.117188 109.164062 373.035156 C 108.5625 375.003906 106.460938 374.390625 106.460938 374.390625 C 105.621094 373.96875 104.382812 372.472656 103.015625 370.058594 C 97.371094 360.09375 87.632812 333.703125 83.164062 316.515625 C 81.808594 311.289062 80.9375 306.902344 80.796875 304.058594 C 80.726562 302.652344 80.84375 301.578125 81.109375 300.886719 C 87.558594 284.09375 106.53125 258.558594 129.886719 226.878906 Z M 190.058594 250.484375 L 221.84375 198.652344 C 246.566406 235.421875 269.53125 266.128906 282.660156 284.585938 C 287.710938 291.6875 291.3125 296.992188 293.023438 300.144531 C 293.886719 301.738281 294.269531 302.890625 294.269531 303.519531 C 294.269531 326.960938 282.652344 359.449219 276.496094 369.996094 C 275.269531 372.101562 274.15625 373.382812 273.414062 373.765625 C 272.785156 374.089844 272.207031 374.332031 271.386719 373.511719 C 257.355469 359.480469 223.453125 307.980469 190.058594 250.484375 Z M 190.058594 250.484375 " fill-opacity="1" fill-rule="evenodd"/></g></svg>